HIERARCHY
ROOT joint_Root
{
	OFFSET 0.0 0.0 0.0
	CHANNELS 6 Xposition Yposition Zposition Zrotation Xrotation Yrotation 
	JOINT Hips
	{
		OFFSET 4.5925 91.4895 -427.239
		CHANNELS 6 Xposition Yposition Zposition Zrotation Xrotation Yrotation 
		JOINT Spine
		{
			OFFSET 15.7357 0.0 0.0
			CHANNELS 6 Xposition Yposition Zposition Zrotation Xrotation Yrotation 
			JOINT Chest
			{
				OFFSET 8.98455 -0.406207 0.0
				CHANNELS 6 Xposition Yposition Zposition Zrotation Xrotation Yrotation 
				JOINT Neck
				{
					OFFSET 16.3773 0.0 0.0
					CHANNELS 6 Xposition Yposition Zposition Zrotation Xrotation Yrotation 
					JOINT Head
					{
						OFFSET 6.45672 0.0 0.0
						CHANNELS 6 Xposition Yposition Zposition Zrotation Xrotation Yrotation 
						End Site
						{
							OFFSET 0.0 0.0 0.0
						}
					}
				}
				JOINT Shoulder_L
				{
					OFFSET 12.9942 -0.242716 4.98039
					CHANNELS 6 Xposition Yposition Zposition Zrotation Xrotation Yrotation 
					JOINT UpperArm_L
					{
						OFFSET 5.34809 0.0 0.0
						CHANNELS 6 Xposition Yposition Zposition Zrotation Xrotation Yrotation 
						JOINT LowerArm_L
						{
							OFFSET 24.3286 1.87007e-05 0.0
							CHANNELS 6 Xposition Yposition Zposition Zrotation Xrotation Yrotation 
							JOINT Hand_L
							{
								OFFSET 22.2916 0.0 0.0
								CHANNELS 6 Xposition Yposition Zposition Zrotation Xrotation Yrotation 
								End Site
								{
									OFFSET 0.0 0.0 0.0
								}
							}
						}
					}
				}
				JOINT Shoulder_R
				{
					OFFSET 12.9945 -0.242716 -4.98039
					CHANNELS 6 Xposition Yposition Zposition Zrotation Xrotation Yrotation 
					JOINT UpperArm_R
					{
						OFFSET -5.34813 0.0 0.0
						CHANNELS 6 Xposition Yposition Zposition Zrotation Xrotation Yrotation 
						JOINT LowerArm_R
						{
							OFFSET -24.3289 0.000322201 0.0
							CHANNELS 6 Xposition Yposition Zposition Zrotation Xrotation Yrotation 
							JOINT Hand_R
							{
								OFFSET -22.2915 -0.000108084 0.0
								CHANNELS 6 Xposition Yposition Zposition Zrotation Xrotation Yrotation 
								End Site
								{
									OFFSET 0.0 0.0 0.0
								}
							}
						}
					}
				}
			}
		}
		JOINT UpperLeg_L
		{
			OFFSET -2.19248 -6.46944 0.0
			CHANNELS 6 Xposition Yposition Zposition Zrotation Xrotation Yrotation 
			JOINT LowerLeg_L
			{
				OFFSET 39.0811 0.0 -1.23785e-05
				CHANNELS 6 Xposition Yposition Zposition Zrotation Xrotation Yrotation 
				JOINT Foot_L
				{
					OFFSET 40.9854 0.0 -1.26872e-05
					CHANNELS 6 Xposition Yposition Zposition Zrotation Xrotation Yrotation 
					JOINT Toes_L
					{
						OFFSET 11.7543 0.0 0.0
						CHANNELS 6 Xposition Yposition Zposition Zrotation Xrotation Yrotation 
						End Site
						{
							OFFSET 0.0 0.0 0.0
						}
					}
				}
			}
		}
		JOINT UpperLeg_R
		{
			OFFSET -2.19251 6.46944 0.0
			CHANNELS 6 Xposition Yposition Zposition Zrotation Xrotation Yrotation 
			JOINT LowerLeg_R
			{
				OFFSET -39.0811 -0.00228153 -0.0401928
				CHANNELS 6 Xposition Yposition Zposition Zrotation Xrotation Yrotation 
				JOINT Foot_R
				{
					OFFSET -40.9854 0.0 0.0
					CHANNELS 6 Xposition Yposition Zposition Zrotation Xrotation Yrotation 
					JOINT Toes_R
					{
						OFFSET -11.7543 0.0 0.0
						CHANNELS 6 Xposition Yposition Zposition Zrotation Xrotation Yrotation 
						End Site
						{
							OFFSET 0.0 0.0 0.0
						}
					}
				}
			}
		}
	}
}
MOTION
Frames:	9
Frame Time:	0.0333333
0.000000 0.000000 0.000000 0.000000 0.000000 -0.000000 -5.858610 91.227200 -3.117100 87.599500 16.120300 5.464340 15.735700 0.000005 -0.000001 87.914900 84.200200 -93.295200 8.984550 -0.406207 -0.000000 3.837530 -0.238025 -10.740600 16.377300 -0.000001 -0.000001 10.036400 -7.005980 7.225680 6.456720 -0.000001 -0.000000 -0.704449 -6.194140 3.263410 12.994200 -0.242716 4.980390 -91.840800 4.684890 -68.520400 5.348090 -0.000007 -0.000001 -57.942000 12.275300 -7.653680 24.328600 0.000019 0.000005 6.668380 18.834200 -19.907800 22.291600 -0.000001 0.000005 13.068700 5.127790 4.469220 12.994500 -0.242716 -4.980390 94.195900 -10.360200 -67.807000 -5.348130 -0.000001 -0.000004 -43.101100 -68.241400 -79.078900 -24.328900 0.000322 -0.000009 -2.548080 -2.385010 -46.907000 -22.291500 -0.000108 -0.000004 19.704400 5.545880 -8.513060 -2.192480 -6.469440 -0.000000 -171.376000 -4.120140 -10.905500 39.081100 -0.000007 -0.000012 -0.112448 0.200858 29.242100 40.985400 -0.000006 -0.000013 -1.087010 16.952000 -64.299100 11.754300 -0.000000 0.000003 -0.000042 -0.000486 -16.596500 -2.192510 6.469440 -0.000001 -177.624000 28.056000 175.939000 -39.081100 -0.002282 -0.040193 0.023105 -0.039105 26.850600 -40.985400 0.000008 0.000006 8.177930 3.179520 -69.397100 -11.754300 -0.000006 -0.000006 -0.004062 -0.052083 -18.691800
0.000000 0.000000 0.000000 0.000000 0.000000 -0.000000 -5.696140 91.271100 -3.255620 87.598600 15.571500 5.387130 15.735700 0.000005 -0.000001 87.852300 84.191700 -93.131500 8.984550 -0.406207 -0.000000 3.852660 -0.255410 -10.538000 16.377300 -0.000001 -0.000001 10.069700 -6.945290 7.289180 6.456720 -0.000001 -0.000000 -0.730200 -6.007720 3.064620 12.994200 -0.242716 4.980390 -91.866500 4.734580 -68.455300 5.348090 -0.000007 -0.000001 -57.863200 12.973300 -8.183390 24.328600 0.000019 0.000005 6.780340 18.739100 -20.308900 22.291600 -0.000001 0.000005 13.076900 5.132000 4.370500 12.994500 -0.242716 -4.980390 94.128900 -10.208300 -67.838100 -5.348130 -0.000001 -0.000004 -41.800100 -67.840600 -77.667200 -24.328900 0.000322 -0.000009 -3.128630 -2.884910 -47.349000 -22.291500 -0.000108 -0.000004 19.955700 5.547830 -8.602660 -2.192480 -6.469440 -0.000000 -171.492000 -4.281120 -10.851200 39.081100 -0.000007 -0.000012 -0.113786 0.204383 29.106200 40.985400 -0.000006 -0.000013 -1.067910 16.529600 -64.230700 11.754300 -0.000000 0.000003 -0.000047 -0.000536 -16.598400 -2.192510 6.469440 -0.000001 -177.716000 27.807700 175.859000 -39.081100 -0.002282 -0.040193 0.015956 -0.025131 26.714300 -40.985400 0.000008 0.000006 7.973180 3.583040 -69.195300 -11.754300 -0.000006 -0.000006 -0.003972 -0.051146 -18.653600
0.000000 0.000000 0.000000 0.000000 0.000000 -0.000000 -5.484970 91.319200 -3.386600 87.607500 14.881100 5.303660 15.735700 0.000005 -0.000001 87.691400 84.185700 -92.854100 8.984550 -0.406207 -0.000000 3.861040 -0.292739 -10.304100 16.377300 -0.000001 -0.000001 9.995400 -6.896890 7.268690 6.456720 -0.000001 -0.000000 -0.627866 -5.761460 2.985220 12.994200 -0.242716 4.980390 -91.900100 4.820300 -68.455700 5.348090 -0.000007 -0.000001 -57.778500 13.939000 -8.757500 24.328600 0.000019 0.000005 6.739950 18.522900 -20.405300 22.291600 -0.000001 0.000005 13.200600 5.135580 4.285940 12.994500 -0.242716 -4.980390 93.973600 -9.903900 -68.007900 -5.348130 -0.000001 -0.000004 -40.018800 -67.108300 -75.266800 -24.328900 0.000322 -0.000009 -3.729930 -3.337050 -48.227800 -22.291500 -0.000108 -0.000004 20.325700 5.551320 -8.768640 -2.192480 -6.469440 -0.000000 -171.641000 -4.414480 -10.747500 39.081100 -0.000007 -0.000012 -0.115120 0.208004 28.962600 40.985400 -0.000006 -0.000013 -1.049690 15.960100 -64.197900 11.754300 -0.000000 0.000003 -0.000040 -0.000463 -16.595600 -2.192510 6.469440 -0.000001 -177.859000 27.497800 175.790000 -39.081100 -0.002282 -0.040193 0.006708 -0.006797 26.569000 -40.985400 0.000008 0.000006 7.711180 4.092550 -68.975800 -11.754300 -0.000006 -0.000006 -0.004169 -0.053185 -18.736600
0.000000 0.000000 0.000000 0.000000 0.000000 -0.000000 -5.230730 91.365500 -3.526790 87.589800 14.078500 5.224410 15.735700 0.000005 -0.000001 87.354800 84.188100 -92.377000 8.984550 -0.406207 -0.000000 3.849200 -0.364874 -10.021000 16.377300 -0.000001 -0.000001 9.834840 -6.844440 7.183880 6.456720 -0.000001 -0.000000 -0.545504 -5.588770 3.024300 12.994200 -0.242716 4.980390 -91.939900 4.928070 -68.482100 5.348090 -0.000007 -0.000001 -57.784200 14.989200 -9.278330 24.328600 0.000019 0.000005 6.641020 18.279200 -20.365300 22.291600 -0.000001 0.000005 13.322400 5.135110 4.297130 12.994500 -0.242716 -4.980390 93.701300 -9.366690 -68.323600 -5.348130 -0.000001 -0.000004 -37.799400 -65.911800 -71.778000 -24.328900 0.000322 -0.000009 -4.738860 -3.991320 -49.969200 -22.291500 -0.000108 -0.000004 20.926100 5.550600 -8.733600 -2.192480 -6.469440 -0.000000 -171.818000 -4.467790 -10.667500 39.081100 -0.000007 -0.000012 -0.110451 0.200259 28.878700 40.985400 -0.000006 -0.000013 -1.029980 15.165200 -64.196400 11.754300 -0.000000 0.000003 -0.000040 -0.000464 -16.595600 -2.192510 6.469440 -0.000001 -177.991000 27.088400 175.708000 -39.081100 -0.002282 -0.040193 -0.001818 0.010316 26.428300 -40.985400 0.000008 0.000006 7.440630 4.605330 -68.738100 -11.754300 -0.000006 -0.000006 -0.004205 -0.053551 -18.751500
0.000000 0.000000 0.000000 0.000000 0.000000 -0.000000 -4.930800 91.397000 -3.684710 87.569000 13.167900 5.095680 15.735700 0.000005 -0.000001 86.895400 84.200000 -91.754200 8.984550 -0.406207 -0.000000 3.816150 -0.460663 -9.691270 16.377300 -0.000001 -0.000001 9.535140 -6.709100 7.073190 6.456720 -0.000001 -0.000000 -0.483489 -5.480270 3.061280 12.994200 -0.242716 4.980390 -91.970100 5.016130 -68.525300 5.348090 -0.000007 -0.000001 -57.962300 16.184700 -9.894160 24.328600 0.000019 0.000005 6.537650 18.339800 -20.012300 22.291600 -0.000001 0.000005 13.461800 5.135970 4.276690 12.994500 -0.242716 -4.980390 93.360600 -8.711180 -68.808100 -5.348130 -0.000001 -0.000004 -35.389600 -64.151300 -67.126200 -24.328900 0.000322 -0.000009 -6.513450 -4.939010 -52.970200 -22.291500 -0.000108 -0.000004 21.298500 5.549050 -8.661830 -2.192480 -6.469440 -0.000000 -172.025000 -4.327650 -10.673300 39.081100 -0.000007 -0.000012 -0.112141 0.203244 28.888100 40.985400 -0.000006 -0.000013 -1.046070 14.094700 -64.252900 11.754300 -0.000000 0.000003 -0.000041 -0.000478 -16.596100 -2.192510 6.469440 -0.000001 -178.138000 26.624300 175.510000 -39.081100 -0.002282 -0.040193 -0.014242 0.035381 26.383800 -40.985400 0.000008 0.000006 7.061490 5.210220 -68.507900 -11.754300 -0.000006 -0.000006 -0.004151 -0.052998 -18.729000
0.000000 0.000000 0.000000 0.000000 0.000000 -0.000000 -4.594400 91.427800 -3.829700 87.512400 12.109800 5.005130 15.735700 0.000005 -0.000001 86.568000 84.189300 -91.238500 8.984550 -0.406207 -0.000000 3.830040 -0.534999 -9.312690 16.377300 -0.000001 -0.000001 9.065230 -6.556600 6.826570 6.456720 -0.000001 -0.000000 -0.441263 -5.332140 3.281130 12.994200 -0.242716 4.980390 -91.985000 5.058870 -68.543100 5.348090 -0.000007 -0.000001 -58.275000 17.599100 -10.588000 24.328600 0.000019 0.000005 6.404280 18.426100 -19.550300 22.291600 -0.000001 0.000005 13.488700 5.133930 4.324900 12.994500 -0.242716 -4.980390 92.876900 -7.678920 -69.389900 -5.348130 -0.000001 -0.000004 -32.918200 -61.675600 -61.785900 -24.328900 0.000322 -0.000009 -8.122170 -5.293430 -57.113300 -22.291500 -0.000108 -0.000004 21.548700 5.543560 -8.406180 -2.192480 -6.469440 -0.000000 -172.231000 -4.018630 -10.625100 39.081100 -0.000007 -0.000012 -0.111608 0.201871 28.937000 40.985400 -0.000006 -0.000013 -1.100810 12.723700 -64.366200 11.754300 -0.000000 0.000003 -0.000036 -0.000424 -16.594100 -2.192510 6.469440 -0.000001 -178.270000 25.927600 175.371000 -39.081100 -0.002282 -0.040193 -0.025812 0.058914 26.303300 -40.985400 0.000008 0.000006 6.612830 5.749620 -68.242500 -11.754300 -0.000006 -0.000006 -0.004352 -0.055056 -18.812800
0.000000 0.000000 0.000000 0.000000 0.000000 -0.000000 -4.222810 91.449300 -3.989660 87.444800 11.017300 4.839440 15.735700 0.000005 -0.000001 85.555100 84.189000 -89.978700 8.984550 -0.406207 -0.000000 3.807910 -0.747270 -8.812520 16.377300 -0.000001 -0.000001 8.488450 -6.364490 6.340880 6.456720 -0.000001 -0.000000 -0.490927 -5.085320 3.515010 12.994200 -0.242716 4.980390 -92.034600 5.181610 -68.527900 5.348090 -0.000007 -0.000001 -58.639100 19.230400 -11.146400 24.328600 0.000019 0.000005 6.197120 18.163400 -19.204600 22.291600 -0.000001 0.000005 13.386100 5.130710 4.400650 12.994500 -0.242716 -4.980390 92.357800 -6.535420 -70.112900 -5.348130 -0.000001 -0.000004 -31.374900 -58.277800 -56.387000 -24.328900 0.000322 -0.000009 -8.722470 -4.579860 -62.504500 -22.291500 -0.000108 -0.000004 21.984600 5.535680 -8.049210 -2.192480 -6.469440 -0.000000 -172.456000 -3.748260 -10.704700 39.081100 -0.000007 -0.000012 -0.112180 0.201943 29.052400 40.985400 -0.000006 -0.000013 -1.132380 11.341700 -64.494500 11.754300 -0.000000 0.000003 -0.000042 -0.000488 -16.596500 -2.192510 6.469440 -0.000001 -178.393000 25.329600 175.099000 -39.081100 -0.002282 -0.040193 -0.039771 0.087281 26.270400 -40.985400 0.000008 0.000006 6.111560 6.415300 -67.963000 -11.754300 -0.000006 -0.000006 -0.004350 -0.055030 -18.811800
0.000000 0.000000 0.000000 0.000000 0.000000 -0.000000 -3.792770 91.478800 -4.115800 87.455900 9.730410 4.731640 15.735700 0.000005 -0.000001 84.110100 84.179100 -88.288200 8.984550 -0.406207 -0.000000 3.790270 -1.048540 -8.312420 16.377300 -0.000001 -0.000001 7.912600 -5.969260 5.833520 6.456720 -0.000001 -0.000000 -0.608292 -4.764990 3.618250 12.994200 -0.242716 4.980390 -92.090300 5.316340 -68.499200 5.348090 -0.000007 -0.000001 -59.223300 20.497700 -11.376500 24.328600 0.000019 0.000005 6.090220 17.939600 -19.106000 22.291600 -0.000001 0.000005 13.116800 5.139320 4.197230 12.994500 -0.242716 -4.980390 91.808300 -5.358700 -71.323700 -5.348130 -0.000001 -0.000004 -30.295300 -53.778600 -50.234500 -24.328900 0.000322 -0.000009 -8.754850 -3.440800 -68.705400 -22.291500 -0.000108 -0.000004 22.644000 5.530310 -7.809310 -2.192480 -6.469440 -0.000000 -172.755000 -3.930200 -10.593200 39.081100 -0.000007 -0.000012 -0.113628 0.204285 29.083900 40.985400 -0.000006 -0.000013 -1.072260 10.189200 -64.629900 11.754300 -0.000000 0.000003 -0.000045 -0.000513 -16.597500 -2.192510 6.469440 -0.000001 -178.664000 24.654300 174.934000 -39.081100 -0.002282 -0.040193 -0.048508 0.105127 26.238700 -40.985400 0.000008 0.000006 5.721670 7.169170 -67.712200 -11.754300 -0.000006 -0.000006 -0.004289 -0.054410 -18.786500
0.000000 0.000000 0.000000 0.000000 0.000000 -0.000000 -3.330540 91.505200 -4.175390 87.539300 8.178380 4.701560 15.735700 0.000005 -0.000001 82.938200 84.145600 -86.863200 8.984550 -0.406207 -0.000000 3.822250 -1.302810 -7.797830 16.377300 -0.000001 -0.000001 7.180400 -5.408310 5.226910 6.456720 -0.000001 -0.000000 -0.681103 -4.427840 3.681910 12.994200 -0.242716 4.980390 -92.186000 5.527080 -68.381400 5.348090 -0.000007 -0.000001 -59.707700 22.006200 -11.501900 24.328600 0.000019 0.000005 6.063100 17.626800 -19.329000 22.291600 -0.000001 0.000005 12.804100 5.145560 4.048900 12.994500 -0.242716 -4.980390 91.196800 -3.853740 -72.736500 -5.348130 -0.000001 -0.000004 -29.433200 -47.883400 -43.983800 -24.328900 0.000322 -0.000009 -9.278970 -2.612190 -74.409400 -22.291500 -0.000108 -0.000004 23.761200 5.528110 -7.710360 -2.192480 -6.469440 -0.000000 -173.092000 -4.634040 -10.277000 39.081100 -0.000007 -0.000012 -0.113651 0.204365 29.079400 40.985400 -0.000006 -0.000013 -0.932694 9.279410 -64.815200 11.754300 -0.000000 0.000003 -0.000044 -0.000506 -16.597200 -2.192510 6.469440 -0.000001 -179.067000 23.894100 174.859000 -39.081100 -0.002282 -0.040193 -0.054644 0.117470 26.259500 -40.985400 0.000008 0.000006 5.419900 8.089390 -67.515700 -11.754300 -0.000006 -0.000006 -0.004278 -0.054300 -18.782000
